<svg width="26" height="26" viewBox="0 0 26 26" fill="none" xmlns="http://www.w3.org/2000/svg">
<g filter="url(#filter0_d)">
<path d="M2.75 3.50003H8.75C9.81087 3.50003 10.8283 3.92146 11.5784 4.6716C12.3286 5.42175 12.75 6.43916 12.75 7.50003V21.5C12.75 20.7044 12.4339 19.9413 11.8713 19.3787C11.3087 18.8161 10.5456 18.5 9.75 18.5H2.75V3.50003Z" fill="#99D6EA" stroke="#5CBDE5" stroke-width="2" stroke-linecap="round" stroke-linejoin="round"/>
<path d="M22.75 3.50003H16.75C15.6891 3.50003 14.6717 3.92146 13.9216 4.6716C13.1714 5.42175 12.75 6.43916 12.75 7.50003V21.5C12.75 20.7044 13.0661 19.9413 13.6287 19.3787C14.1913 18.8161 14.9544 18.5 15.75 18.5H22.75V3.50003Z" fill="#99D6EA" stroke="#5CBDE5" stroke-width="2" stroke-linecap="round" stroke-linejoin="round"/>
</g>
<defs>
<filter id="filter0_d" x="0.75" y="0.500031" width="26" height="27" filterUnits="userSpaceOnUse" color-interpolation-filters="sRGB">
<feFlood flood-opacity="0" result="BackgroundImageFix"/>
<feColorMatrix in="SourceAlpha" type="matrix" values="0 0 0 0 0 0 0 0 0 0 0 0 0 0 0 0 0 0 127 0"/>
<feOffset dx="2" dy="3"/>
<feColorMatrix type="matrix" values="0 0 0 0 0 0 0 0 0 0.180392 0 0 0 0 0.364706 0 0 0 1 0"/>
<feBlend mode="normal" in2="BackgroundImageFix" result="effect1_dropShadow"/>
<feBlend mode="normal" in="SourceGraphic" in2="effect1_dropShadow" result="shape"/>
</filter>
</defs>
</svg>
