<svg width="38" height="36" viewBox="0 0 38 36" fill="none" xmlns="http://www.w3.org/2000/svg">
<path d="M9.82349 8.37957C9.82349 7.23392 10.778 6.30518 11.9555 6.30518H27.999C29.1764 6.30518 30.131 7.23392 30.131 8.37957V29.5218C30.131 30.6675 29.1764 31.5962 27.999 31.5962H11.9555C10.778 31.5962 9.82349 30.6675 9.82349 29.5218V8.37957Z" fill="#4E4E4E"/>
<path d="M8.40204 6.99646C8.40204 5.85081 9.35657 4.92208 10.534 4.92208H26.5775C27.755 4.92208 28.7095 5.85081 28.7095 6.99647V28.1387C28.7095 29.2844 27.755 30.2131 26.5775 30.2131H10.534C9.35657 30.2131 8.40204 29.2844 8.40204 28.1387V6.99646Z" fill="#40C1AC"/>
<path fill-rule="evenodd" clip-rule="evenodd" d="M10.534 4.40349H26.5775C28.0493 4.40349 29.2425 5.5644 29.2425 6.99647V28.1387C29.2425 29.5708 28.0493 30.7317 26.5775 30.7317H10.534C9.06218 30.7317 7.86902 29.5708 7.86902 28.1387V6.99647C7.86902 5.5644 9.06218 4.40349 10.534 4.40349ZM10.534 4.92208C9.35655 4.92208 8.40202 5.85082 8.40202 6.99647V28.1387C8.40202 29.2844 9.35655 30.2131 10.534 30.2131H26.5775C27.755 30.2131 28.7095 29.2844 28.7095 28.1387V6.99647C28.7095 5.85082 27.755 4.92208 26.5775 4.92208H10.534Z" fill="#4E4E4E"/>
<rect width="3.5" height="9.75" rx="1" transform="matrix(-1 0 0 1 26 17.4998)" fill="white"/>
<path d="M10.8644 8.28136C10.8644 7.70853 11.3417 7.24416 11.9304 7.24416H25.4606C26.0493 7.24416 26.5266 7.70853 26.5266 8.28136V10.7117C26.5266 11.2846 26.0493 11.7489 25.4606 11.7489H11.9304C11.3417 11.7489 10.8644 11.2846 10.8644 10.7117V8.28136Z" fill="#4E4E4E"/>
<path fill-rule="evenodd" clip-rule="evenodd" d="M11.8035 13.5812H14.0882C14.677 13.5812 15.1542 14.0455 15.1542 14.6183V15.0833C15.1542 15.6561 14.677 16.1205 14.0882 16.1205H11.8035C11.2148 16.1205 10.7375 15.6561 10.7375 15.0833V14.6183C10.7375 14.0455 11.2148 13.5812 11.8035 13.5812ZM11.8035 14.0998C11.5091 14.0998 11.2705 14.3319 11.2705 14.6183V15.0833C11.2705 15.3697 11.5091 15.6019 11.8035 15.6019H14.0882C14.3826 15.6019 14.6212 15.3697 14.6212 15.0833V14.6183C14.6212 14.3319 14.3826 14.0998 14.0882 14.0998H11.8035Z" fill="#4E4E4E"/>
<path fill-rule="evenodd" clip-rule="evenodd" d="M11.8035 17.2363H14.0882C14.677 17.2363 15.1542 17.7007 15.1542 18.2735V18.7385C15.1542 19.3113 14.677 19.7757 14.0882 19.7757H11.8035C11.2148 19.7757 10.7375 19.3113 10.7375 18.7385V18.2735C10.7375 17.7007 11.2148 17.2363 11.8035 17.2363ZM11.8035 17.7549C11.5091 17.7549 11.2705 17.9871 11.2705 18.2735V18.7385C11.2705 19.0249 11.5091 19.2571 11.8035 19.2571H14.0882C14.3826 19.2571 14.6212 19.0249 14.6212 18.7385V18.2735C14.6212 17.9871 14.3826 17.7549 14.0882 17.7549H11.8035Z" fill="#4E4E4E"/>
<path fill-rule="evenodd" clip-rule="evenodd" d="M11.8035 21.0892H14.0882C14.677 21.0892 15.1542 21.5536 15.1542 22.1264V22.5913C15.1542 23.1642 14.677 23.6285 14.0882 23.6285H11.8035C11.2148 23.6285 10.7375 23.1642 10.7375 22.5913V22.1264C10.7375 21.5536 11.2148 21.0892 11.8035 21.0892ZM11.8035 21.6078C11.5091 21.6078 11.2705 21.84 11.2705 22.1264V22.5913C11.2705 22.8778 11.5091 23.1099 11.8035 23.1099H14.0882C14.3826 23.1099 14.6212 22.8778 14.6212 22.5913V22.1264C14.6212 21.84 14.3826 21.6078 14.0882 21.6078H11.8035Z" fill="#4E4E4E"/>
<path fill-rule="evenodd" clip-rule="evenodd" d="M11.8035 24.9422H14.0882C14.677 24.9422 15.1542 25.4065 15.1542 25.9794V26.4443C15.1542 27.0172 14.677 27.4815 14.0882 27.4815H11.8035C11.2148 27.4815 10.7375 27.0172 10.7375 26.4443V25.9794C10.7375 25.4065 11.2148 24.9422 11.8035 24.9422ZM11.8035 25.4608C11.5091 25.4608 11.2705 25.6929 11.2705 25.9794V26.4443C11.2705 26.7307 11.5091 26.9629 11.8035 26.9629H14.0882C14.3826 26.9629 14.6212 26.7307 14.6212 26.4443V25.9794C14.6212 25.6929 14.3826 25.4608 14.0882 25.4608H11.8035Z" fill="#4E4E4E"/>
<path fill-rule="evenodd" clip-rule="evenodd" d="M17.6927 13.5812H19.9774C20.5661 13.5812 21.0434 14.0455 21.0434 14.6183V15.0833C21.0434 15.6561 20.5662 16.1205 19.9774 16.1205H17.6927C17.1039 16.1205 16.6267 15.6561 16.6267 15.0833V14.6183C16.6267 14.0455 17.1039 13.5812 17.6927 13.5812ZM17.6927 14.0998C17.3983 14.0998 17.1597 14.3319 17.1597 14.6183V15.0833C17.1597 15.3697 17.3983 15.6019 17.6927 15.6019H19.9774C20.2718 15.6019 20.5104 15.3697 20.5104 15.0833V14.6183C20.5104 14.3319 20.2718 14.0998 19.9774 14.0998H17.6927Z" fill="#4E4E4E"/>
<path fill-rule="evenodd" clip-rule="evenodd" d="M17.6927 17.2363H19.9774C20.5661 17.2363 21.0434 17.7007 21.0434 18.2735V18.7385C21.0434 19.3113 20.5662 19.7757 19.9774 19.7757H17.6927C17.1039 19.7757 16.6267 19.3113 16.6267 18.7385V18.2735C16.6267 17.7007 17.1039 17.2363 17.6927 17.2363ZM17.6927 17.7549C17.3983 17.7549 17.1597 17.9871 17.1597 18.2735V18.7385C17.1597 19.0249 17.3983 19.2571 17.6927 19.2571H19.9774C20.2718 19.2571 20.5104 19.0249 20.5104 18.7385V18.2735C20.5104 17.9871 20.2718 17.7549 19.9774 17.7549H17.6927Z" fill="#4E4E4E"/>
<path fill-rule="evenodd" clip-rule="evenodd" d="M17.6927 21.0892H19.9774C20.5661 21.0892 21.0434 21.5536 21.0434 22.1264V22.5913C21.0434 23.1642 20.5662 23.6285 19.9774 23.6285H17.6927C17.1039 23.6285 16.6267 23.1642 16.6267 22.5913V22.1264C16.6267 21.5536 17.1039 21.0892 17.6927 21.0892ZM17.6927 21.6078C17.3983 21.6078 17.1597 21.84 17.1597 22.1264V22.5913C17.1597 22.8778 17.3983 23.1099 17.6927 23.1099H19.9774C20.2718 23.1099 20.5104 22.8778 20.5104 22.5913V22.1264C20.5104 21.84 20.2718 21.6078 19.9774 21.6078H17.6927Z" fill="#4E4E4E"/>
<path fill-rule="evenodd" clip-rule="evenodd" d="M17.6927 24.9422H19.9774C20.5661 24.9422 21.0434 25.4065 21.0434 25.9794V26.4443C21.0434 27.0172 20.5662 27.4815 19.9774 27.4815H17.6927C17.1039 27.4815 16.6267 27.0172 16.6267 26.4443V25.9794C16.6267 25.4065 17.1039 24.9422 17.6927 24.9422ZM17.6927 25.4608C17.3983 25.4608 17.1597 25.6929 17.1597 25.9794V26.4443C17.1597 26.7307 17.3983 26.9629 17.6927 26.9629H19.9774C20.2718 26.9629 20.5104 26.7307 20.5104 26.4443V25.9794C20.5104 25.6929 20.2718 25.4608 19.9774 25.4608H17.6927Z" fill="#4E4E4E"/>
<path fill-rule="evenodd" clip-rule="evenodd" d="M23.4296 13.5812H25.7143C26.3031 13.5812 26.7804 14.0455 26.7804 14.6183V15.0833C26.7804 15.6561 26.3031 16.1205 25.7144 16.1205H23.4296C22.8409 16.1205 22.3636 15.6561 22.3636 15.0833V14.6183C22.3636 14.0455 22.8409 13.5812 23.4296 13.5812ZM23.4296 14.0998C23.1353 14.0998 22.8966 14.3319 22.8966 14.6183V15.0833C22.8966 15.3697 23.1353 15.6019 23.4296 15.6019H25.7144C26.0087 15.6019 26.2474 15.3697 26.2474 15.0833V14.6183C26.2474 14.3319 26.0087 14.0998 25.7143 14.0998H23.4296Z" fill="#4E4E4E"/>
<path fill-rule="evenodd" clip-rule="evenodd" d="M23.1248 17.2363H25.4095C25.9983 17.2363 26.4755 17.7007 26.4755 18.2735V26.4442C26.4755 27.0171 25.9983 27.4814 25.4095 27.4814H23.1248C22.5361 27.4814 22.0588 27.0171 22.0588 26.4442V18.2735C22.0588 17.7007 22.5361 17.2363 23.1248 17.2363ZM23.1248 17.7549C22.8304 17.7549 22.5918 17.9871 22.5918 18.2735V26.4442C22.5918 26.7307 22.8304 26.9628 23.1248 26.9628H25.4095C25.7039 26.9628 25.9425 26.7307 25.9425 26.4442V18.2735C25.9425 17.9871 25.7039 17.7549 25.4095 17.7549H23.1248Z" fill="#4E4E4E"/>
<path fill-rule="evenodd" clip-rule="evenodd" d="M23.4422 21.8258C23.4422 21.6826 23.5615 21.5665 23.7087 21.5665H24.8256C24.9728 21.5665 25.0921 21.6826 25.0921 21.8258C25.0921 21.969 24.9728 22.0851 24.8256 22.0851H23.7087C23.5615 22.0851 23.4422 21.969 23.4422 21.8258Z" fill="#4E4E4E"/>
<path fill-rule="evenodd" clip-rule="evenodd" d="M23.4422 22.7891C23.4422 22.6459 23.5615 22.5298 23.7087 22.5298H24.8256C24.9728 22.5298 25.0921 22.6459 25.0921 22.7891C25.0921 22.9323 24.9728 23.0484 24.8256 23.0484H23.7087C23.5615 23.0484 23.4422 22.9323 23.4422 22.7891Z" fill="#4E4E4E"/>
<path fill-rule="evenodd" clip-rule="evenodd" d="M23.4422 8.79489C23.4422 8.39391 23.7763 8.06886 24.1884 8.06886H24.4221C24.8342 8.06886 25.1683 8.39391 25.1683 8.79489V10.0719C25.1683 10.4729 24.8342 10.7979 24.4221 10.7979H24.1884C23.7763 10.7979 23.4422 10.4729 23.4422 10.0719V8.79489ZM24.1884 8.58745C24.0707 8.58745 23.9752 8.68032 23.9752 8.79489V10.0719C23.9752 10.1865 24.0707 10.2794 24.1884 10.2794H24.4221C24.5398 10.2794 24.6353 10.1865 24.6353 10.0719V8.79489C24.6353 8.68032 24.5398 8.58745 24.4221 8.58745H24.1884Z" fill="white"/>
</svg>
