<svg width="20" height="20" viewBox="0 0 20 20" fill="none" xmlns="http://www.w3.org/2000/svg">
<path d="M17.8667 9.20835L10.2083 16.8667C9.27014 17.8049 7.99766 18.332 6.67084 18.332C5.34402 18.332 4.07154 17.8049 3.13334 16.8667C2.19514 15.9285 1.66806 14.656 1.66806 13.3292C1.66806 12.0024 2.19514 10.7299 3.13334 9.79168L10.7917 2.13335C11.4171 1.50788 12.2655 1.15649 13.15 1.15649C14.0346 1.15649 14.8829 1.50788 15.5083 2.13335C16.1338 2.75882 16.4852 3.60713 16.4852 4.49168C16.4852 5.37623 16.1338 6.22455 15.5083 6.85002L7.84167 14.5083C7.52894 14.8211 7.10478 14.9968 6.66251 14.9968C6.22023 14.9968 5.79608 14.8211 5.48334 14.5083C5.17061 14.1956 4.99491 13.7715 4.99491 13.3292C4.99491 12.8869 5.17061 12.4627 5.48334 12.15L12.5583 5.08335" stroke="#5CBDE5" stroke-width="2" stroke-linecap="round" stroke-linejoin="round"/>
</svg>
