<svg width="84" height="84" viewBox="0 0 84 84" fill="none" xmlns="http://www.w3.org/2000/svg">
<circle cx="42" cy="42" r="40.5" fill="white" stroke="#EAAA00" stroke-width="3"/>
<path fill-rule="evenodd" clip-rule="evenodd" d="M36.8078 28.3774C38.2289 25.4849 42.4111 25.4849 43.8322 28.3774L46.7966 34.4113L52.9813 35.1031C56.2503 35.4687 57.6209 39.4111 55.2658 41.6745L50.0791 46.6592L51.3222 51.6812C52.1433 54.9987 48.494 57.6455 45.5225 55.8875L40.32 52.8096L35.1176 55.8875C32.1461 57.6455 28.4967 54.9987 29.3179 51.6812L30.561 46.6592L25.3742 41.6745C23.0191 39.4111 24.3897 35.4687 27.6587 35.1031L33.8434 34.4113L36.8078 28.3774Z" fill="#EAAA00" stroke="#4E4E4E" stroke-linecap="round" stroke-linejoin="round"/>
<path fill-rule="evenodd" clip-rule="evenodd" d="M63.8072 24.7734C64.6362 23.1022 67.0758 23.1022 67.9048 24.7734L69.634 28.2597L73.2417 28.6594C75.1487 28.8706 75.9482 31.1485 74.5744 32.4562L71.5488 35.3362L72.2739 38.2378C72.7529 40.1547 70.6241 41.6839 68.8908 40.6682L65.856 38.8898L62.8212 40.6682C61.0879 41.6839 58.9591 40.1546 59.4381 38.2378L60.1632 35.3362L57.1376 32.4562C55.7638 31.1485 56.5633 28.8706 58.4703 28.6594L62.078 28.2597L63.8072 24.7734Z" fill="#EAAA00" stroke="#4E4E4E" stroke-linecap="round" stroke-linejoin="round"/>
<path fill-rule="evenodd" clip-rule="evenodd" d="M57.3231 44.8341C57.6488 44.1913 58.6072 44.1913 58.9329 44.8341L59.6122 46.175L61.0296 46.3287C61.7787 46.4099 62.0928 47.286 61.5531 47.789L60.3645 48.8967L60.6493 50.0127C60.8375 50.7499 60.0012 51.3381 59.3202 50.9475L58.128 50.2635L56.9358 50.9475C56.2548 51.3381 55.4185 50.7499 55.6067 50.0127L55.8916 48.8967L54.7029 47.789C54.1632 47.286 54.4773 46.4099 55.2265 46.3287L56.6438 46.175L57.3231 44.8341Z" fill="#EAAA00" stroke="#4E4E4E" stroke-linecap="round" stroke-linejoin="round"/>
<path fill-rule="evenodd" clip-rule="evenodd" d="M17.3526 44.596C17.9447 43.3747 19.6873 43.3747 20.2794 44.596L21.5146 47.1436L24.0915 47.4357C25.4536 47.5901 26.0247 49.2546 25.0434 50.2103L22.8823 52.3149L23.4002 54.4353C23.7424 55.8361 22.2218 56.9536 20.9837 56.2114L18.816 54.9118L16.6483 56.2114C15.4102 56.9536 13.8896 55.8361 14.2318 54.4353L14.7497 52.3149L12.5886 50.2103C11.6073 49.2546 12.1784 47.5901 13.5405 47.4357L16.1174 47.1436L17.3526 44.596Z" fill="#EAAA00" stroke="#4E4E4E" stroke-linecap="round" stroke-linejoin="round"/>
</svg>
