<svg width="238" height="111" viewBox="0 0 238 111" fill="none" xmlns="http://www.w3.org/2000/svg">
<path d="M119 8.03338H112.551V6.346H127.218V8.03338H120.769V27.5482H119V8.03338ZM132.673 18.928C132.673 14.9296 135.4 13.4256 137.758 13.4256C140.596 13.4256 142.328 15.3698 142.328 18.5978V27.5849H144.06V18.2677C144.06 13.9759 141.26 11.7749 137.943 11.7749C135.474 11.7749 133.52 12.802 132.599 14.7462V5.86913H130.941V27.5482H132.673V18.928ZM160.681 18.231V27.5116H159.023V24.9438C157.991 26.7412 156.038 27.9884 153.384 27.9884C149.994 27.9884 147.893 25.8609 147.893 23.073C147.893 20.3586 149.957 18.4144 154.121 18.4144C156.148 18.4144 157.844 18.4511 159.023 18.0843C158.949 14.9296 157.107 13.389 154.306 13.389C152.5 13.389 150.731 14.0126 149.552 14.8929L148.667 13.6091C149.773 12.692 151.984 11.8116 154.343 11.8116C157.807 11.775 160.681 13.7558 160.681 18.231ZM158.986 19.6983C157.917 19.9551 156.517 19.9917 154.822 19.9917C151.763 19.9917 149.662 20.652 149.662 23.1097C149.662 25.1639 151.173 26.3744 153.458 26.3744C156.849 26.3744 158.986 23.77 158.986 20.2485V19.6983ZM186.295 27.5116H188.027V17.9742C188.027 13.9392 185.447 11.7749 182.13 11.7749C179.882 11.7749 177.597 12.8754 176.602 15.113C175.754 12.8754 173.727 11.7749 171.59 11.7749C169.416 11.7749 167.573 12.8754 166.725 14.7462V12.1785H165.03V27.5116H166.762V18.8913C166.762 14.7829 169.379 13.389 171.479 13.389C174.059 13.389 175.681 15.2964 175.681 18.341V27.5116H177.413V18.341C177.413 14.7829 179.993 13.389 182.093 13.389C184.673 13.389 186.331 15.1497 186.331 18.121V27.5116H186.295ZM206.675 20.5053H193.702C193.96 23.77 196.024 26.2644 199.967 26.2644C201.994 26.2644 204.242 25.5307 205.606 24.4303L206.417 25.7508C205.053 26.8513 202.621 27.8784 199.93 27.8784C194.255 27.8784 191.896 23.8067 191.896 19.8083C191.896 15.2597 194.881 11.8116 199.562 11.8116C203.616 11.8116 206.748 14.5261 206.748 19.1847C206.748 19.8083 206.711 20.1751 206.675 20.5053ZM204.979 18.928C204.906 15.4798 202.694 13.3523 199.599 13.3523C196.356 13.3523 194.071 15.5899 193.702 18.928H204.979ZM217.804 19.6249C216.551 19.0013 215.077 18.4878 214.008 17.9742C212.976 17.4607 212.35 16.727 212.35 15.6633C212.35 14.2693 213.382 13.1689 215.372 13.1689C216.846 13.1689 218.099 13.7558 218.836 15.0397L220.052 14.0492C219.057 12.4352 217.325 11.6282 215.409 11.6282C212.424 11.6282 210.692 13.4623 210.692 15.6999C210.692 17.2039 211.539 18.4511 213.161 19.2948C214.193 19.845 215.777 20.3586 216.846 20.9088C217.952 21.459 218.799 22.156 218.799 23.4032C218.799 24.9071 217.436 26.3011 215.298 26.3011C213.64 26.3011 212.129 25.4207 211.244 23.6233L209.844 24.467C210.986 26.8146 213.161 27.8417 215.298 27.8417C218.431 27.8417 220.531 25.7875 220.531 23.2931C220.531 21.4223 219.389 20.3952 217.804 19.6249ZM125.67 40.5337C129.061 40.5337 132.009 42.1844 133.557 44.5687L134.921 43.5783C133.189 40.8638 129.651 38.883 125.67 38.883C119.737 38.883 114.688 43.3949 114.688 49.9243C114.688 56.4171 119.627 60.7822 125.634 60.7822C129.651 60.7822 133.004 58.8748 134.958 56.2336L133.705 55.2065C131.899 57.6642 128.95 59.1315 125.67 59.1315C120.437 59.1315 116.494 55.2799 116.494 49.9243C116.494 44.422 120.511 40.5337 125.67 40.5337ZM150.547 60.4521H152.279V51.1715C152.279 46.8797 149.478 44.6788 146.161 44.6788C143.692 44.6788 141.739 45.7059 140.817 47.65V38.7363H139.159V60.4154H140.891V51.7584C140.891 47.7601 143.618 46.2561 145.977 46.2561C148.814 46.2561 150.547 48.2003 150.547 51.4283V60.4521ZM158.323 47.54V45.0823H156.664V60.4521H158.396V51.6851C158.396 48.6404 159.907 46.3295 162.856 46.3295C163.408 46.3295 163.961 46.4028 164.514 46.5863L164.698 44.9356C164.035 44.7521 163.372 44.6788 162.782 44.6788C160.718 44.6788 159.17 45.5592 158.323 47.54ZM168.089 60.4521H169.821V45.0823H168.089V60.4521ZM170.484 41.194C170.484 40.3503 169.821 39.7267 169.01 39.7267C168.163 39.7267 167.499 40.3503 167.499 41.194C167.499 42.0377 168.163 42.6613 169.01 42.6613C169.821 42.6613 170.484 42.0377 170.484 41.194ZM181.872 52.5287C180.619 51.9052 179.145 51.3916 178.076 50.8781C177.044 50.3645 176.418 49.6309 176.418 48.5671C176.418 47.1732 177.45 46.0727 179.44 46.0727C180.914 46.0727 182.167 46.6596 182.904 47.9435L184.12 46.9531C183.125 45.3391 181.393 44.5321 179.477 44.5321C176.491 44.5321 174.759 46.3662 174.759 48.6038C174.759 50.1077 175.607 51.3549 177.229 52.1986C178.26 52.7488 179.845 53.2624 180.914 53.8126C182.02 54.3629 182.867 55.0598 182.867 56.307C182.867 57.811 181.504 59.2049 179.366 59.2049C177.708 59.2049 176.197 58.3245 175.312 56.5271L173.912 57.3708C175.054 59.7184 177.229 60.7455 179.366 60.7455C182.499 60.7455 184.599 58.6913 184.599 56.197C184.562 54.3262 183.457 53.2991 181.872 52.5287ZM186.516 46.5863H189.243V55.3899C189.243 58.618 190.717 60.7455 193.886 60.7455C195.36 60.7455 196.871 60.3054 197.977 59.425L197.24 58.1044C196.319 58.7647 195.176 59.1682 193.997 59.1682C191.933 59.1682 190.938 57.811 190.938 55.4266V46.5863H197.277V45.0823H190.938V39.6533H189.243V45.0823H186.479V46.5863H186.516ZM201.626 60.4521H203.358V45.0823H201.626V60.4521ZM202.547 39.7267C201.699 39.7267 201.036 40.3503 201.036 41.194C201.036 42.0377 201.699 42.6613 202.547 42.6613C203.358 42.6613 204.021 42.0377 204.021 41.194C204.021 40.387 203.358 39.7267 202.547 39.7267ZM220.2 51.1348V60.4521H218.541V57.8843C217.509 59.6818 215.556 60.9289 212.903 60.9289C209.512 60.9289 207.412 58.8014 207.412 56.0135C207.412 53.2991 209.475 51.3549 213.64 51.3549C215.667 51.3549 217.362 51.3916 218.541 51.0248C218.468 47.8701 216.625 46.3295 213.824 46.3295C212.018 46.3295 210.249 46.9531 209.07 47.8334L208.186 46.5496C209.291 45.6325 211.502 44.7521 213.861 44.7521C217.325 44.7155 220.2 46.6963 220.2 51.1348ZM218.468 52.6021C217.399 52.8589 215.998 52.8956 214.303 52.8956C211.244 52.8956 209.144 53.5558 209.144 56.0135C209.144 58.0677 210.655 59.2783 212.94 59.2783C216.33 59.2783 218.468 56.6738 218.468 53.1523V52.6021ZM231.882 44.6788C229.413 44.6788 227.423 45.7059 226.502 47.7968V45.0823H224.843V60.4521H226.575V51.8318C226.575 47.8334 229.303 46.2928 231.698 46.2928C234.536 46.2928 236.268 48.2736 236.268 51.5016V60.4521H238V51.1715C238 46.843 235.199 44.6788 231.882 44.6788ZM124.417 82.9015C123.128 82.2046 120.769 81.2875 119.663 80.7006C117.858 79.7835 117.084 78.6464 117.084 77.1791C117.084 74.9048 118.889 73.4009 121.395 73.4009C123.201 73.4009 124.86 74.2445 126.076 75.9686L127.403 74.9048C125.818 72.6305 123.607 71.7502 121.359 71.7502C117.636 71.7502 115.241 74.1712 115.241 77.2525C115.241 79.5634 116.568 81.1408 118.889 82.3146C119.921 82.9015 121.911 83.6352 123.201 84.2954C124.933 85.1391 126.002 86.2029 126.002 87.927C126.002 90.2379 124.086 92.0354 121.138 92.0354C118.631 92.0354 116.678 90.6414 115.609 88.3305L114.209 89.2842C115.573 92.3288 118.373 93.7227 121.211 93.7227C124.97 93.7227 127.919 91.4118 127.919 87.8903C127.845 85.4326 126.481 84.002 124.417 82.9015ZM138.975 79.1599C141.37 79.1599 143.434 80.4071 144.466 82.3513L145.866 81.5443C144.687 79.0866 141.997 77.5826 138.975 77.5826C134.294 77.5826 130.941 80.9207 130.941 85.6527C130.941 90.348 134.221 93.6494 138.827 93.6494C141.812 93.6494 144.576 92.1454 145.793 89.7611L144.392 88.9174C143.397 90.7515 141.223 92.1087 138.827 92.1087C135.289 92.1087 132.673 89.4309 132.673 85.6894C132.673 81.8377 135.363 79.1599 138.975 79.1599ZM156.701 77.5459C154.232 77.5459 152.279 78.573 151.357 80.5172V71.6034H149.699V93.2825H151.431V84.6256C151.431 80.6272 154.158 79.1233 156.517 79.1233C159.355 79.1233 161.087 81.0674 161.087 84.2954V93.2825H162.819V84.002C162.819 79.7469 160.018 77.5459 156.701 77.5459ZM182.609 85.616C182.609 90.1279 179.219 93.6861 174.575 93.6861C169.932 93.6861 166.541 90.1279 166.541 85.616C166.541 81.1408 169.932 77.5826 174.575 77.5826C179.256 77.5826 182.609 81.1408 182.609 85.616ZM180.877 85.616C180.877 82.0211 178.224 79.1599 174.575 79.1599C170.963 79.1599 168.273 82.0211 168.273 85.616C168.273 89.2475 170.963 92.1087 174.575 92.1087C178.224 92.1087 180.877 89.2475 180.877 85.616ZM202.252 85.616C202.252 90.1279 198.862 93.6861 194.218 93.6861C189.574 93.6861 186.184 90.1279 186.184 85.616C186.184 81.1408 189.574 77.5826 194.218 77.5826C198.862 77.5826 202.252 81.1408 202.252 85.616ZM200.52 85.616C200.52 82.0211 197.867 79.1599 194.218 79.1599C190.606 79.1599 187.916 82.0211 187.916 85.616C187.916 89.2475 190.606 92.1087 194.218 92.1087C197.867 92.1087 200.52 89.2475 200.52 85.616ZM206.085 93.3192H207.817V71.6401H206.085V93.3192ZM84.0629 77.766C77.7241 77.766 74.5178 80.5172 71.4221 83.1583C68.437 85.726 65.5993 88.1471 59.8501 88.1471C57.5652 88.1471 55.7594 87.7436 54.2115 87.12V88.8807C55.7962 89.4309 57.6389 89.7611 59.8501 89.7611C66.1889 89.7611 69.3952 87.0099 72.4909 84.3688C75.476 81.8011 78.3137 79.38 84.0629 79.38C84.7262 79.38 85.3527 79.4167 85.9793 79.4901C86.2372 78.9765 86.4952 78.463 86.7163 77.9128C85.8687 77.8394 84.9842 77.766 84.0629 77.766ZM89.9226 64.4871C88.301 63.9002 86.3846 63.5334 84.0629 63.5334C77.7241 63.5334 74.5178 66.2845 71.4221 68.9256C68.437 71.4934 65.5993 73.9144 59.8501 73.9144C57.5652 73.9144 55.7594 73.5109 54.2115 72.8873V74.648C55.7962 75.1983 57.6389 75.5284 59.8501 75.5284C66.1889 75.5284 69.3952 72.7773 72.4909 70.1361C75.476 67.5684 78.3137 65.1474 84.0629 65.1474C86.4584 65.1474 88.3379 65.5876 89.9226 66.2478V64.4871ZM89.9226 50.2178C88.301 49.6309 86.3846 49.264 84.0629 49.264C77.7241 49.264 74.5178 52.0152 71.4221 54.6563C68.437 57.2241 65.5993 59.6451 59.8501 59.6451C57.5652 59.6451 55.7594 59.2416 54.2115 58.618V60.3787C55.7962 60.9289 57.6389 61.2591 59.8501 61.2591C66.1889 61.2591 69.3952 58.5079 72.4909 55.8668C75.476 53.2991 78.3137 50.8781 84.0629 50.8781C86.4584 50.8781 88.3379 51.3182 89.9226 51.9785V50.2178ZM12.4933 83.7819C12.825 84.2221 13.1567 84.6989 13.4884 85.1391L27.8613 70.7597L41.5708 84.3321V82.0211L27.8244 68.4488L12.4933 83.7819ZM41.6076 62.6897L27.8613 49.1173L6.89161 70.0628C7.00217 70.7231 7.14958 71.3833 7.297 72.0069L27.8613 51.4283L41.5708 65.0007V62.6897H41.6076ZM48.6835 109.093V40.497H92.3181V38.8463H48.6835V0H47.0251V38.8097H3.35367V40.4603H47.0251V109.056C9.58191 99.2617 1.65841 79.7469 1.65841 65.0373H0C0 76.9957 4.6804 86.9366 14.2992 95.2634C27.3822 106.598 47.8359 111 47.8359 111C47.8359 111 67.7368 106.928 81.4463 95.2634C93.8659 84.6989 95.7086 72.6305 95.7086 65.0373H94.0502C94.0502 79.7835 86.1635 99.2984 48.6835 109.093ZM70.6113 21.2756V22.4861H54.1747V0H55.0592L70.6113 21.2756ZM68.4738 20.9455L55.7225 3.52148V20.9455H68.4738ZM89.8857 3.19134V32.7571H68.9529V31.2531L88.6696 3.19134H89.8857ZM88.2273 6.67614L71.0904 31.0697H88.2273V6.67614ZM41.6076 18.2677V19.9184L40.8705 19.9917C34.5686 20.652 29.4828 25.7141 28.8194 31.9868L28.7457 32.7204H27.0873L27.0136 31.9868C26.3503 25.6775 21.2645 20.652 14.9257 19.9917L14.1886 19.9184V18.2677L14.9257 18.1943C21.2645 17.534 26.3503 12.4719 27.0136 6.19927L27.0873 5.46563H28.7457L28.8194 6.19927C29.4828 12.4719 34.5686 17.534 40.8705 18.1943L41.6076 18.2677ZM37.3695 19.1114C32.947 17.6074 29.446 14.0859 27.8981 9.68407C26.3871 14.0859 22.8492 17.5707 18.4268 19.1114C22.8492 20.6153 26.3503 24.1368 27.8981 28.5387C29.446 24.1001 32.947 20.6153 37.3695 19.1114ZM18.5373 6.85955V8.25347L17.874 8.32683C14.6308 8.65697 12.0511 11.2614 11.7194 14.4527L11.6457 15.113H10.2453L10.1716 14.4527C9.83989 11.2247 7.22329 8.65697 3.98018 8.32683L3.31682 8.29015V6.85955L3.98018 6.78619C7.22329 6.45605 9.80304 3.85162 10.1716 0.660278L10.2084 0H11.6089L11.6826 0.660278C12.0142 3.8883 14.6308 6.45605 17.8371 6.78619L18.5373 6.85955ZM15.1836 7.55651C13.3041 6.71282 11.7931 5.20886 10.9455 3.33807C10.0979 5.20886 8.58687 6.71282 6.70734 7.55651C8.58687 8.4002 10.0979 9.90416 10.9455 11.7749C11.7563 9.94085 13.3041 8.4002 15.1836 7.55651Z" fill="#002E5D"/>
</svg>
