<svg id="Layer_1" data-name="Layer 1" xmlns="http://www.w3.org/2000/svg" viewBox="0 0 708.66 113.39"><path d="M106,41.85h24.35v1.83H119.15V78.35h-2V43.68H106Zm43.74,9.39c-4.54,0-8.15,1.92-9.68,6V41.16h-1.88V78.35h2V63.44c0-8.25,5.78-10.37,9.58-10.37,5.43,0,8.55,3.8,8.55,9.38v15.9h2V62.45C160.23,55.09,155.49,51.24,149.71,51.24Zm39,11.11v16h-2V73.41a10.82,10.82,0,0,1-10,5.73c-5.63,0-9-3.55-9-8.24S171.32,63,178,63c3.65,0,6.76.05,8.79-.74,0-5.88-3.06-9.19-8.4-9.19a13.44,13.44,0,0,0-8.25,2.72l-1.08-1.53c1.68-1.48,5.48-3,9.33-3C184.16,51.29,188.76,54.69,188.76,62.35Zm-2,2c-2.12.59-5.14.54-8.4.54-5,0-8.64,1.58-8.64,6.08,0,3.85,2.77,6.37,7.06,6.37,6,0,10-4.5,10-10.92Zm39.46-13.09a9.8,9.8,0,0,0-9.39,6.32,9.37,9.37,0,0,0-17.38-.84V51.93h-1.93V78.35h2V63.44c0-8.45,5.48-10.37,8.64-10.37,4.64,0,7.66,3.45,7.66,8.79V78.35h2V62c0-7.07,5.44-8.89,8.55-8.89,4.74,0,7.75,3.16,7.75,8.29v17h2v-17C236.07,54.5,231.38,51.24,226.24,51.24Zm42.52,14.57h-23c.29,6.76,4.49,11.31,11.61,11.31a16.4,16.4,0,0,0,9.87-3.26l1,1.48a18,18,0,0,1-11,3.61c-9.59,0-13.54-7-13.54-13.88,0-7.86,5-13.78,13-13.78,6.67,0,12,4.49,12,12.2A22.13,22.13,0,0,1,268.76,65.81ZM266.93,64c0-6.67-4.05-10.87-10.08-10.87-6.27,0-10.62,4.3-11,10.87ZM288,65.07c-2.17-1-4.69-1.88-6.42-2.72-1.92-.94-3.41-2.22-3.41-4.54,0-2.77,2.13-4.94,6.08-4.94a6.8,6.8,0,0,1,6.22,3.26l1.43-1a8.67,8.67,0,0,0-7.75-4.1c-5,0-7.9,3.11-7.9,6.82,0,2.76,1.63,4.69,4.39,6.07,1.83.89,4.25,1.63,6.18,2.57,2.17,1,3.95,2.32,3.95,4.84,0,3.06-2.67,5.78-6.82,5.78a8,8,0,0,1-7.41-4.84l-1.67.94A9.85,9.85,0,0,0,284.09,79c5.19,0,8.69-3.51,8.69-7.81C292.78,67.88,290.76,66.35,288,65.07Zm42.7-22c6.23,0,11.86,3,14.43,7.26l1.53-.94c-3-4.69-9.09-8.15-15.91-8.15a18.59,18.59,0,0,0-18.82,19c0,11.16,8.45,18.67,18.72,18.67a20,20,0,0,0,16-7.86l-1.38-1a18.05,18.05,0,0,1-14.58,7.06c-9.58,0-16.74-7.11-16.74-17S321.26,43,330.74,43Zm35.32,8.2c-4.54,0-8.14,1.92-9.68,6V41.16h-1.87V78.35h2V63.44c0-8.25,5.78-10.37,9.58-10.37,5.44,0,8.55,3.8,8.55,9.38v15.9h2V62.45C376.59,55.09,371.84,51.24,366.06,51.24Zm20.81,5.13V51.93H385V78.35h2V62.75c0-4.8,2.07-9.68,7.75-9.68a9.3,9.3,0,0,1,2.87.44l.29-1.78a11.93,11.93,0,0,0-3.36-.49A7.74,7.74,0,0,0,386.87,56.37Zm19.05-12.89a2.05,2.05,0,1,0,0,4.1,2.05,2.05,0,0,0,0-4.1Zm-1,34.87h2V51.93h-2Zm23-13.28c-2.18-1-4.7-1.88-6.42-2.72-1.93-.94-3.41-2.22-3.41-4.54,0-2.77,2.12-4.94,6.07-4.94a6.81,6.81,0,0,1,6.23,3.26l1.43-1A8.7,8.7,0,0,0,424,51c-5,0-7.9,3.11-7.9,6.82,0,2.76,1.63,4.69,4.4,6.07,1.82.89,4.24,1.63,6.17,2.57,2.17,1,4,2.32,4,4.84,0,3.06-2.66,5.78-6.81,5.78a8,8,0,0,1-7.41-4.84l-1.68.94A9.86,9.86,0,0,0,423.89,79c5.18,0,8.69-3.51,8.69-7.81C432.58,67.88,430.55,66.35,427.84,65.07ZM449,77.12c-3.8,0-5.83-2.52-5.83-7.21V53.76H455V51.93H443.17V42.59h-2v9.34h-4.7v1.83h4.7v16.3c0,5.23,2.37,8.89,7.65,8.89A11.62,11.62,0,0,0,456,76.62L455,75.14A10,10,0,0,1,449,77.12Zm15-33.64a2.05,2.05,0,1,0,0,4.1,2.05,2.05,0,0,0,0-4.1Zm-1,34.87h2V51.93h-2Zm31.18-16v16h-2V73.41a10.79,10.79,0,0,1-10,5.73c-5.64,0-9-3.55-9-8.24S476.69,63,483.36,63c3.66,0,6.77.05,8.79-.74,0-5.88-3.06-9.19-8.39-9.19a13.4,13.4,0,0,0-8.25,2.72l-1.09-1.53c1.68-1.48,5.48-3,9.34-3C489.53,51.29,494.13,54.69,494.13,62.35Zm-2,2c-2.12.59-5.13.54-8.39.54-5,0-8.65,1.58-8.65,6.08,0,3.85,2.77,6.37,7.07,6.37,6,0,10-4.5,10-10.92Zm22.53-13.09c-4.54,0-8.15,1.92-9.68,6V51.93h-1.87V78.35h2V63.44c0-8.25,5.78-10.37,9.58-10.37,5.44,0,8.55,3.8,8.55,9.38v15.9h2V62.45C525.2,55.09,520.46,51.24,514.68,51.24ZM559,60.62c-2-.94-5.78-2.37-7.51-3.21-4.05-2-5.28-4.2-5.28-6.91,0-4.45,3.41-7.46,8.3-7.46A10,10,0,0,1,563,47.73l1.53-1.09a11.73,11.73,0,0,0-10.12-5.43c-6.23,0-10.23,4-10.23,9.29,0,4,2.28,6.81,6.72,8.79,1.33.59,5,2,7,3,3.61,1.73,5.44,3.66,5.44,6.92,0,4.59-3.9,8-9.34,8a10.56,10.56,0,0,1-10-6.62l-1.68.84A12.46,12.46,0,0,0,554.17,79c6.22,0,11.16-3.91,11.16-9.78C565.33,64.92,562.76,62.45,559,60.62Zm25.95-7.51A11,11,0,0,1,595,58.94l1.63-.89c-2-4.19-6.52-6.76-11.75-6.76-7.76,0-13.53,5.68-13.53,13.88,0,8,5.53,13.78,13.23,13.78a13.2,13.2,0,0,0,11.91-6.72l-1.58-1a11.6,11.6,0,0,1-10.33,5.88c-6.47,0-11.26-4.84-11.26-12S578.29,53.11,584.91,53.11Zm30.55-1.87c-4.54,0-8.15,1.92-9.68,6V41.16H603.9V78.35h2V63.44c0-8.25,5.78-10.37,9.58-10.37,5.43,0,8.55,3.8,8.55,9.38v15.9h2V62.45C626,55.09,621.24,51.24,615.46,51.24Zm45,13.88a13.68,13.68,0,1,1-27.36,0,13.68,13.68,0,1,1,27.36,0Zm-2,0c0-6.77-4.89-12-11.71-12S635,58.35,635,65.12s4.89,12,11.71,12S658.46,71.88,658.46,65.12Zm36,0a13.68,13.68,0,1,1-27.36,0,13.68,13.68,0,1,1,27.36,0Zm-2,0c0-6.77-4.89-12-11.71-12s-11.7,5.24-11.7,12,4.89,12,11.7,12S692.48,71.88,692.48,65.12Zm9.36-24V78.35h2V41.16ZM77.21,76c-5.47,0-8.22,2.38-10.88,4.67S61.32,85,56.38,85h0a12.73,12.73,0,0,1-4.87-.88v1.53a14.42,14.42,0,0,0,4.87.77h0c5.47,0,8.22-2.37,10.88-4.67s5-4.32,9.95-4.32h0a14.11,14.11,0,0,1,1.64.09c.23-.45.44-.91.64-1.36A16.21,16.21,0,0,0,77.21,76Zm5.06-11.5a14.38,14.38,0,0,0-5.06-.84h0c-5.47,0-8.22,2.37-10.88,4.67s-5,4.32-9.95,4.32h0a12.73,12.73,0,0,1-4.87-.88v1.53a14.4,14.4,0,0,0,4.87.78h0c5.47,0,8.22-2.38,10.88-4.67s5-4.33,9.95-4.33h0a12.57,12.57,0,0,1,5.06,1Zm0-12.35a14.38,14.38,0,0,0-5.06-.84h0c-5.47,0-8.22,2.38-10.88,4.67s-5,4.33-9.95,4.33h0a12.92,12.92,0,0,1-4.87-.88v1.53a14.42,14.42,0,0,0,4.87.77h0c5.47,0,8.22-2.37,10.88-4.67s5-4.32,9.95-4.32h0a12.75,12.75,0,0,1,5.06.95ZM15.61,81.16c.28.4.56.78.86,1.17L28.86,69.87,40.67,81.61v-2L28.84,67.86ZM40.67,62.91,28.84,51.16l-18,18.15c.1.57.22,1.13.34,1.68L28.85,53.18,40.67,64.91ZM46.77,103V43.69H84.34V42.26H46.77V8.68H45.34V42.26H7.72v1.43H45.34V103C13.08,94.57,6.27,77.67,6.27,64.93H4.84c0,10.35,4.05,19,12.33,26.16,11.27,9.79,28.88,13.61,28.88,13.61S63.2,101.17,75,91.1C85.67,82,87.26,71.51,87.26,64.93H85.84C85.84,77.69,79,94.59,46.77,103ZM65.65,27.09v1H51.5V8.68h.76Zm-1.86-.29-11-15.06V26.8ZM82.23,11.44V37h-18v-1.3l17-24.27Zm-1.42,3L66.05,35.58H80.81Zm-40.13,10v1.43L40,26A11.72,11.72,0,0,0,29.66,36.37L29.6,37H28.17l-.07-.64A11.71,11.71,0,0,0,17.71,26l-.64-.07V24.48l.64-.06A11.72,11.72,0,0,0,28.1,14l.07-.64H29.6l.06.64A11.73,11.73,0,0,0,40,24.42ZM37,25.2a13.24,13.24,0,0,1-8.15-8.14,13.17,13.17,0,0,1-8.15,8.14,13.2,13.2,0,0,1,8.15,8.14A13.27,13.27,0,0,1,37,25.2ZM20.8,14.62v1.22l-.57.06a6,6,0,0,0-5.31,5.31l-.06.57H13.64l-.06-.57A6,6,0,0,0,8.27,15.9l-.57-.06V14.62l.57-.06a6,6,0,0,0,5.31-5.31l.06-.57h1.22l.06.57a6,6,0,0,0,5.31,5.31Zm-2.89.61a7.31,7.31,0,0,1-3.66-3.65,7.31,7.31,0,0,1-3.66,3.65,7.33,7.33,0,0,1,3.66,3.66A7.33,7.33,0,0,1,17.91,15.23Z"/></svg>