<svg xmlns="http://www.w3.org/2000/svg" viewBox="0 0 698.97 96.02"><g id="Layer_2" data-name="Layer 2"><g id="Layer_1-2" data-name="Layer 1"><path d="M101.12,33.17h24.35V35H114.31V69.67h-2V35H101.12Zm43.75,9.39c-4.55,0-8.15,1.92-9.68,6V32.48h-1.88V69.67h2V54.75c0-8.24,5.78-10.37,9.59-10.37,5.43,0,8.54,3.81,8.54,9.39v15.9h2V53.77C155.39,46.41,150.65,42.56,144.87,42.56Zm39,11.11v16h-2V64.73a10.82,10.82,0,0,1-10,5.73c-5.63,0-9-3.56-9-8.25s3.56-7.85,10.22-7.85c3.66,0,6.77,0,8.8-.74,0-5.88-3.07-9.19-8.4-9.19a13.44,13.44,0,0,0-8.25,2.72l-1.09-1.53a15.64,15.64,0,0,1,9.34-3C179.32,42.6,183.91,46,183.91,53.67Zm-2,2c-2.13.6-5.14.55-8.4.55-5,0-8.64,1.58-8.64,6.07,0,3.85,2.76,6.37,7.06,6.37,6,0,10-4.49,10-10.91Zm39.45-13.08A9.78,9.78,0,0,0,212,48.88,9.37,9.37,0,0,0,194.62,48V43.25H192.7V69.67h2V54.75c0-8.44,5.49-10.37,8.65-10.37,4.64,0,7.65,3.46,7.65,8.79v16.5h2V53.27c0-7.06,5.43-8.89,8.54-8.89,4.74,0,7.76,3.16,7.76,8.3v17h2v-17C231.22,45.81,226.53,42.56,221.39,42.56Zm42.52,14.57h-23c.3,6.76,4.5,11.31,11.61,11.31a16.47,16.47,0,0,0,9.88-3.26l1,1.48a18.05,18.05,0,0,1-11,3.6c-9.58,0-13.53-7-13.53-13.88,0-7.85,5-13.78,13-13.78,6.67,0,12.05,4.5,12.05,12.2A21.8,21.8,0,0,1,263.91,57.13Zm-1.83-1.83c0-6.67-4.05-10.87-10.07-10.87-6.27,0-10.62,4.3-11,10.87Zm21.12,1.08c-2.17-1-4.69-1.87-6.42-2.71-1.93-.94-3.41-2.22-3.41-4.55,0-2.76,2.12-4.94,6.08-4.94a6.83,6.83,0,0,1,6.22,3.26l1.43-1a8.68,8.68,0,0,0-7.75-4.1c-5,0-7.91,3.11-7.91,6.81,0,2.77,1.63,4.7,4.4,6.08,1.83.89,4.25,1.63,6.17,2.57,2.18,1,4,2.32,4,4.84,0,3.06-2.67,5.78-6.82,5.78a8,8,0,0,1-7.41-4.84l-1.68.93a9.86,9.86,0,0,0,9.19,5.73c5.18,0,8.69-3.5,8.69-7.8C287.94,59.2,285.92,57.67,283.2,56.38Zm42.7-22c6.22,0,11.85,3,14.42,7.26l1.53-.94c-3-4.69-9.08-8.15-15.9-8.15a18.57,18.57,0,0,0-18.82,19c0,11.17,8.45,18.67,18.72,18.67a20,20,0,0,0,15.95-7.85l-1.38-1a18,18,0,0,1-14.57,7.07c-9.58,0-16.74-7.12-16.74-17S316.42,34.36,325.9,34.36Zm35.32,8.2c-4.54,0-8.15,1.92-9.68,6V32.48h-1.88V69.67h2V54.75c0-8.24,5.78-10.37,9.58-10.37,5.43,0,8.55,3.81,8.55,9.39v15.9h2V53.77C371.74,46.41,367,42.56,361.22,42.56ZM382,47.69V43.25H380.2V69.67h2V54.06c0-4.79,2.08-9.68,7.76-9.68a9.24,9.24,0,0,1,2.86.45l.3-1.78a11.63,11.63,0,0,0-3.36-.49A7.75,7.75,0,0,0,382,47.69ZM401.08,34.8a2.05,2.05,0,1,0,0,4.1,2.05,2.05,0,0,0,0-4.1Zm-1,34.87h2V43.25h-2ZM423,56.38c-2.17-1-4.69-1.87-6.42-2.71-1.92-.94-3.41-2.22-3.41-4.55,0-2.76,2.13-4.94,6.08-4.94a6.82,6.82,0,0,1,6.22,3.26l1.43-1a8.67,8.67,0,0,0-7.75-4.1c-5,0-7.9,3.11-7.9,6.81,0,2.77,1.63,4.7,4.39,6.08,1.83.89,4.25,1.63,6.18,2.57,2.17,1,3.95,2.32,3.95,4.84,0,3.06-2.67,5.78-6.82,5.78a8,8,0,0,1-7.41-4.84l-1.68.93A9.87,9.87,0,0,0,419,70.26c5.19,0,8.69-3.5,8.69-7.8C427.73,59.2,425.71,57.67,423,56.38Zm21.17,12.06c-3.81,0-5.83-2.52-5.83-7.21V45.07h11.85V43.25H438.33V33.91h-2v9.34h-4.69v1.82h4.69v16.3c0,5.24,2.37,8.89,7.66,8.89a11.69,11.69,0,0,0,7.11-2.32l-.94-1.48A10,10,0,0,1,444.16,68.44Zm15-33.64a2.05,2.05,0,1,0,0,4.1,2.05,2.05,0,0,0,0-4.1Zm-1,34.87h2V43.25h-2Zm31.18-16v16h-2V64.73a10.82,10.82,0,0,1-10,5.73c-5.63,0-9-3.56-9-8.25s3.56-7.85,10.23-7.85c3.65,0,6.76,0,8.79-.74,0-5.88-3.06-9.19-8.4-9.19a13.44,13.44,0,0,0-8.25,2.72l-1.08-1.53a15.61,15.61,0,0,1,9.33-3C484.69,42.6,489.28,46,489.28,53.67Zm-2,2c-2.13.6-5.14.55-8.4.55-5,0-8.64,1.58-8.64,6.07,0,3.85,2.76,6.37,7.06,6.37,6,0,10-4.49,10-10.91Zm22.53-13.08c-4.54,0-8.15,1.92-9.68,6V43.25h-1.88V69.67h2V54.75c0-8.24,5.78-10.37,9.58-10.37,5.43,0,8.55,3.81,8.55,9.39v15.9h2V53.77C520.36,46.41,515.62,42.56,509.84,42.56Zm44.28,9.38c-2-.94-5.78-2.37-7.51-3.21-4.05-2-5.29-4.2-5.29-6.92,0-4.44,3.41-7.45,8.3-7.45a10,10,0,0,1,8.55,4.69L559.7,38a11.73,11.73,0,0,0-10.13-5.43c-6.22,0-10.22,4-10.22,9.28,0,4,2.27,6.82,6.72,8.8,1.33.59,5,2,7,3,3.61,1.73,5.43,3.65,5.43,6.91,0,4.6-3.9,8-9.33,8a10.59,10.59,0,0,1-10-6.62l-1.68.84a12.47,12.47,0,0,0,11.86,7.6c6.22,0,11.16-3.9,11.16-9.78C560.49,56.24,557.92,53.77,554.12,51.94Zm25.94-7.51a11,11,0,0,1,10.13,5.83l1.63-.89c-2-4.2-6.52-6.77-11.76-6.77-7.75,0-13.53,5.68-13.53,13.88s5.53,13.78,13.24,13.78a13.18,13.18,0,0,0,11.9-6.71l-1.58-1a11.6,11.6,0,0,1-10.32,5.88c-6.47,0-11.26-4.84-11.26-12S573.45,44.43,580.06,44.43Zm30.56-1.87c-4.55,0-8.15,1.92-9.69,6V32.48h-1.87V69.67h2V54.75c0-8.24,5.78-10.37,9.59-10.37,5.43,0,8.54,3.81,8.54,9.39v15.9h2V53.77C621.14,46.41,616.39,42.56,610.62,42.56Zm45,13.87a13.69,13.69,0,1,1-27.37,0,13.69,13.69,0,1,1,27.37,0Zm-2,0c0-6.76-4.89-12-11.7-12s-11.71,5.24-11.71,12,4.89,12.06,11.71,12.06S653.61,63.2,653.61,56.43Zm36,0a13.68,13.68,0,1,1-27.36,0,13.68,13.68,0,1,1,27.36,0Zm-2,0c0-6.76-4.89-12-11.7-12s-11.71,5.24-11.71,12,4.89,12.06,11.71,12.06S687.63,63.2,687.63,56.43Zm9.37-24V69.67h2V32.48ZM72.37,67.28c-5.47,0-8.23,2.37-10.89,4.67s-5,4.32-9.95,4.32h0a12.78,12.78,0,0,1-4.87-.87v1.52a14.49,14.49,0,0,0,4.87.78h0c5.48,0,8.23-2.37,10.89-4.67s5-4.32,10-4.32h0c.58,0,1.12,0,1.64.08.22-.44.43-.9.63-1.35a16,16,0,0,0-2.27-.16Zm5-11.51a14.51,14.51,0,0,0-5-.84h0c-5.47,0-8.23,2.38-10.89,4.67s-5,4.33-9.95,4.33h0a12.77,12.77,0,0,1-4.87-.88v1.53a14.49,14.49,0,0,0,4.87.78h0c5.48,0,8.23-2.38,10.89-4.67s5-4.33,10-4.33h0a12.66,12.66,0,0,1,5,1Zm0-12.34a14.28,14.28,0,0,0-5-.84h0c-5.47,0-8.23,2.37-10.89,4.67s-5,4.32-9.95,4.32h0a12.78,12.78,0,0,1-4.87-.87v1.52a14.49,14.49,0,0,0,4.87.78h0c5.48,0,8.23-2.37,10.89-4.67s5-4.32,10-4.32h0a12.49,12.49,0,0,1,5,.95ZM10.77,72.48c.27.39.56.78.86,1.16L24,61.19,35.83,72.92v-2L24,59.17ZM35.83,54.23,24,42.48,6,60.62c.1.57.21,1.14.34,1.69L24,44.5,35.83,56.23Zm6.09,40.13V35H79.49V33.58H41.92V0H40.5V33.58H2.88V35H40.5V94.36C8.24,85.88,1.43,69,1.43,56.25H0c0,10.34,4,19,12.33,26.15C23.6,92.19,41.21,96,41.21,96s17.15-3.54,28.93-13.61c10.69-9.14,12.28-19.58,12.28-26.16H81C81,69,74.18,85.91,41.92,94.36ZM60.81,18.41v1H46.66V0h.75ZM59,18.12,48,3.05V18.12ZM77.39,2.76V28.32h-18V27l17-24.26ZM76,5.78,61.2,26.9H76Zm-40.13,10v1.44l-.63.06A11.73,11.73,0,0,0,24.82,27.69l-.07.63H23.33l-.07-.63A11.73,11.73,0,0,0,12.86,17.3l-.64-.06V15.8l.64-.07A11.71,11.71,0,0,0,23.26,5.35l.07-.63h1.42l.07.63A11.73,11.73,0,0,0,35.2,15.74Zm-3.65.72A13.2,13.2,0,0,1,24,8.38a13.24,13.24,0,0,1-8.16,8.14A13.24,13.24,0,0,1,24,24.66,13.2,13.2,0,0,1,32.18,16.52ZM16,5.94V7.16l-.57.06a6,6,0,0,0-5.3,5.31L10,13.1H8.8l-.06-.57A6,6,0,0,0,3.42,7.22l-.57-.06V5.94l.57-.06A6,6,0,0,0,8.74.57L8.8,0H10l.06.57a6,6,0,0,0,5.3,5.31Zm-2.89.61A7.31,7.31,0,0,1,9.41,2.89,7.33,7.33,0,0,1,5.75,6.55,7.35,7.35,0,0,1,9.41,10.2,7.33,7.33,0,0,1,13.06,6.55Z"/></g></g></svg>