<svg width="27" height="28" viewBox="0 0 27 28" fill="none" xmlns="http://www.w3.org/2000/svg">
<g filter="url(#filter0_d)">
<g clip-path="url(#clip0)">
<rect x="0.25" y="0.500061" width="24" height="24" rx="12" fill="#E6EEE1"/>
<circle cx="12.25" cy="12.5001" r="11" stroke="#40C1AC" stroke-width="2"/>
<mask id="path-3-inside-1" fill="white">
<path fill-rule="evenodd" clip-rule="evenodd" d="M3.25 20.4375V20.0001C3.25 17.0076 9.24625 15.5001 12.25 15.5001C15.2537 15.5001 21.25 17.0076 21.25 20.0001V20.4375C19.0512 22.9288 15.8341 24.5001 12.25 24.5001C8.66592 24.5001 5.44883 22.9288 3.25 20.4375ZM12.25 5.50006C9.76375 5.50006 7.75 7.51381 7.75 10.0001C7.75 12.4863 9.76375 14.5001 12.25 14.5001C14.7362 14.5001 16.75 12.4863 16.75 10.0001C16.75 7.51381 14.7362 5.50006 12.25 5.50006Z"/>
</mask>
<path d="M3.25 20.4375H1.25V21.1939L1.75052 21.761L3.25 20.4375ZM21.25 20.4375L22.7495 21.761L23.25 21.1939V20.4375H21.25ZM5.25 20.4375V20.0001H1.25V20.4375H5.25ZM5.25 20.0001C5.25 19.9865 5.24091 19.8266 5.5903 19.5042C5.95328 19.1692 6.55213 18.811 7.36734 18.4844C9.00096 17.83 10.9981 17.5001 12.25 17.5001V13.5001C10.4981 13.5001 7.99529 13.9239 5.87985 14.7713C4.82053 15.1957 3.73258 15.7755 2.87739 16.5648C2.00862 17.3666 1.25 18.5174 1.25 20.0001H5.25ZM12.25 17.5001C13.5019 17.5001 15.499 17.83 17.1327 18.4844C17.9479 18.811 18.5467 19.1692 18.9097 19.5042C19.2591 19.8266 19.25 19.9865 19.25 20.0001H23.25C23.25 18.5174 22.4914 17.3666 21.6226 16.5648C20.7674 15.7755 19.6795 15.1957 18.6201 14.7713C16.5047 13.9239 14.0019 13.5001 12.25 13.5001V17.5001ZM19.25 20.0001V20.4375H23.25V20.0001H19.25ZM19.7505 19.1141C17.9152 21.1934 15.2364 22.5001 12.25 22.5001V26.5001C16.4317 26.5001 20.1871 24.6642 22.7495 21.761L19.7505 19.1141ZM12.25 22.5001C9.26355 22.5001 6.58477 21.1934 4.74948 19.1141L1.75052 21.761C4.3129 24.6642 8.06829 26.5001 12.25 26.5001V22.5001ZM9.75 10.0001C9.75 8.61838 10.8683 7.50006 12.25 7.50006V3.50006C8.65918 3.50006 5.75 6.40924 5.75 10.0001H9.75ZM12.25 12.5001C10.8683 12.5001 9.75 11.3817 9.75 10.0001H5.75C5.75 13.5909 8.65918 16.5001 12.25 16.5001V12.5001ZM14.75 10.0001C14.75 11.3817 13.6317 12.5001 12.25 12.5001V16.5001C15.8408 16.5001 18.75 13.5909 18.75 10.0001H14.75ZM12.25 7.50006C13.6317 7.50006 14.75 8.61838 14.75 10.0001H18.75C18.75 6.40924 15.8408 3.50006 12.25 3.50006V7.50006Z" fill="#40C1AC" mask="url(#path-3-inside-1)"/>
</g>
</g>
<defs>
<filter id="filter0_d" x="0.25" y="0.500061" width="26" height="27" filterUnits="userSpaceOnUse" color-interpolation-filters="sRGB">
<feFlood flood-opacity="0" result="BackgroundImageFix"/>
<feColorMatrix in="SourceAlpha" type="matrix" values="0 0 0 0 0 0 0 0 0 0 0 0 0 0 0 0 0 0 127 0"/>
<feOffset dx="2" dy="3"/>
<feColorMatrix type="matrix" values="0 0 0 0 0 0 0 0 0 0.180392 0 0 0 0 0.364706 0 0 0 1 0"/>
<feBlend mode="normal" in2="BackgroundImageFix" result="effect1_dropShadow"/>
<feBlend mode="normal" in="SourceGraphic" in2="effect1_dropShadow" result="shape"/>
</filter>
<clipPath id="clip0">
<rect x="0.25" y="0.500061" width="24" height="24" rx="12" fill="white"/>
</clipPath>
</defs>
</svg>
