<svg width="25" height="25" viewBox="0 0 25 25" fill="none" xmlns="http://www.w3.org/2000/svg">
<g clip-path="url(#clip0)">
<circle cx="12.25" cy="12.5" r="11" stroke="#AAAAAA" stroke-width="2"/>
<mask id="path-2-inside-1" fill="white">
<path fill-rule="evenodd" clip-rule="evenodd" d="M3.25 20.4375V20C3.25 17.0075 9.24625 15.5 12.25 15.5C15.2537 15.5 21.25 17.0075 21.25 20V20.4375C19.0512 22.9288 15.8341 24.5 12.25 24.5C8.66592 24.5 5.44883 22.9288 3.25 20.4375ZM12.25 5.50003C9.76375 5.50003 7.75 7.51378 7.75 10C7.75 12.4863 9.76375 14.5 12.25 14.5C14.7362 14.5 16.75 12.4863 16.75 10C16.75 7.51378 14.7362 5.50003 12.25 5.50003Z"/>
</mask>
<path d="M3.25 20.4375H1.25V21.1939L1.75052 21.761L3.25 20.4375ZM21.25 20.4375L22.7495 21.761L23.25 21.1939V20.4375H21.25ZM5.25 20.4375V20H1.25V20.4375H5.25ZM5.25 20C5.25 19.9865 5.24091 19.8266 5.5903 19.5041C5.95328 19.1691 6.55213 18.811 7.36734 18.4844C9.00096 17.83 10.9981 17.5 12.25 17.5V13.5C10.4981 13.5 7.99529 13.9238 5.87985 14.7713C4.82053 15.1956 3.73258 15.7755 2.87739 16.5647C2.00862 17.3666 1.25 18.5173 1.25 20H5.25ZM12.25 17.5C13.5019 17.5 15.499 17.83 17.1327 18.4844C17.9479 18.811 18.5467 19.1691 18.9097 19.5041C19.2591 19.8266 19.25 19.9865 19.25 20H23.25C23.25 18.5173 22.4914 17.3666 21.6226 16.5647C20.7674 15.7755 19.6795 15.1956 18.6201 14.7713C16.5047 13.9238 14.0019 13.5 12.25 13.5V17.5ZM19.25 20V20.4375H23.25V20H19.25ZM19.7505 19.114C17.9152 21.1934 15.2364 22.5 12.25 22.5V26.5C16.4317 26.5 20.1871 24.6641 22.7495 21.761L19.7505 19.114ZM12.25 22.5C9.26355 22.5 6.58477 21.1934 4.74948 19.114L1.75052 21.761C4.3129 24.6641 8.06829 26.5 12.25 26.5V22.5ZM9.75 10C9.75 8.61835 10.8683 7.50003 12.25 7.50003V3.50003C8.65918 3.50003 5.75 6.40921 5.75 10H9.75ZM12.25 12.5C10.8683 12.5 9.75 11.3817 9.75 10H5.75C5.75 13.5908 8.65918 16.5 12.25 16.5V12.5ZM14.75 10C14.75 11.3817 13.6317 12.5 12.25 12.5V16.5C15.8408 16.5 18.75 13.5908 18.75 10H14.75ZM12.25 7.50003C13.6317 7.50003 14.75 8.61835 14.75 10H18.75C18.75 6.40921 15.8408 3.50003 12.25 3.50003V7.50003Z" fill="#AAAAAA" mask="url(#path-2-inside-1)"/>
</g>
<defs>
<clipPath id="clip0">
<rect width="24" height="24" fill="white" transform="translate(0.25 0.500031)"/>
</clipPath>
</defs>
</svg>
