<svg width="25" height="25" viewBox="0 0 25 25" fill="none" xmlns="http://www.w3.org/2000/svg">
<path d="M2.75 3.50006H8.75C9.81087 3.50006 10.8283 3.92149 11.5784 4.67163C12.3286 5.42178 12.75 6.4392 12.75 7.50006V21.5001C12.75 20.7044 12.4339 19.9413 11.8713 19.3787C11.3087 18.8161 10.5456 18.5001 9.75 18.5001H2.75V3.50006Z" stroke="#AAAAAA" stroke-width="2" stroke-linecap="round" stroke-linejoin="round"/>
<path d="M22.75 3.50006H16.75C15.6891 3.50006 14.6717 3.92149 13.9216 4.67163C13.1714 5.42178 12.75 6.4392 12.75 7.50006V21.5001C12.75 20.7044 13.0661 19.9413 13.6287 19.3787C14.1913 18.8161 14.9544 18.5001 15.75 18.5001H22.75V3.50006Z" stroke="#AAAAAA" stroke-width="2" stroke-linecap="round" stroke-linejoin="round"/>
</svg>
