<svg width="83" height="83" viewBox="0 0 83 83" fill="none" xmlns="http://www.w3.org/2000/svg">
<rect x="1.5" y="1.5" width="79.2857" height="79.2857" rx="39.6429" fill="white"/>
<path d="M26.745 21.9204L21.0093 28.3036C20.392 28.9907 20.8926 30.0832 21.816 30.0642L60.3139 29.2738C61.2382 29.2548 61.6931 28.1409 61.0464 27.4803L54.8613 21.1622C54.7594 21.058 54.6189 21.0007 54.4731 21.0037L27.5078 21.5706C27.2161 21.5767 26.94 21.7034 26.745 21.9204Z" fill="#4E4E4E"/>
<path d="M36.5079 60.1545L20.0554 30.1844L27.3832 22.6302L43.9199 53.2573L36.5079 60.1545Z" fill="#40C1AC"/>
<path fill-rule="evenodd" clip-rule="evenodd" d="M19.1303 30.692C18.9073 30.2859 18.9753 29.7818 19.2979 29.4493L26.6257 21.8952C26.8598 21.6538 27.1949 21.5385 27.528 21.5846C27.861 21.6307 28.1522 21.8327 28.3119 22.1286L44.8486 52.7556C45.077 53.1785 44.9908 53.7023 44.6389 54.0297L37.2269 60.9269C36.9886 61.1486 36.6614 61.248 36.3401 61.1963C36.0188 61.1445 35.7394 60.9475 35.5827 60.6622L19.1303 30.692ZM36.5079 60.1543L43.92 53.257L27.3832 22.63L20.0554 30.1841L36.5079 60.1543Z" fill="#4E4E4E"/>
<path fill-rule="evenodd" clip-rule="evenodd" d="M26.5928 36.3102C26.8474 36.1684 27.1688 36.2598 27.3106 36.5144L33.3189 47.2982C33.4607 47.5527 33.3693 47.8741 33.1147 48.016C32.8601 48.1578 32.5387 48.0664 32.3969 47.8118L26.3887 37.028C26.2468 36.7735 26.3382 36.4521 26.5928 36.3102Z" fill="#4E4E4E"/>
<path d="M47.6259 57.527L61.9446 29.2264L54.5325 22.0554L39.2592 52.0529L47.6259 57.527Z" fill="#40C1AC"/>
<path fill-rule="evenodd" clip-rule="evenodd" d="M62.8863 29.7028C63.0951 29.2901 63.0108 28.7895 62.6784 28.4678L55.2664 21.2969C55.0257 21.0641 54.6889 20.9593 54.3586 21.0144C54.0284 21.0696 53.7439 21.2782 53.592 21.5766L38.3187 51.5741C38.0743 52.0541 38.2306 52.6412 38.6814 52.9361L47.048 58.4101C47.2993 58.5745 47.6087 58.6241 47.8987 58.5465C48.1888 58.4688 48.432 58.2713 48.5676 58.0034L62.8863 29.7028ZM47.6258 57.527L39.2592 52.0529L54.5325 22.0554L61.9446 29.2264L47.6258 57.527Z" fill="#4E4E4E"/>
<path fill-rule="evenodd" clip-rule="evenodd" d="M53.4723 29.135C53.7343 29.2627 53.8431 29.5786 53.7154 29.8406L49.3917 38.7085C49.264 38.9704 48.948 39.0792 48.6861 38.9515C48.4241 38.8238 48.3153 38.5079 48.443 38.2459L52.7667 29.378C52.8944 29.1161 53.2103 29.0073 53.4723 29.135Z" fill="#4E4E4E"/>
<path d="M52.3765 53.8653C52.3765 59.9126 47.4742 64.8149 41.4269 64.8149C35.3796 64.8149 30.4773 59.9126 30.4773 53.8653C30.4773 47.818 35.3796 42.9157 41.4269 42.9157C47.4742 42.9157 52.3765 47.818 52.3765 53.8653Z" fill="#EAAA00"/>
<circle cx="41.5" cy="53.5" r="6.5" fill="#EAAA00"/>
<path fill-rule="evenodd" clip-rule="evenodd" d="M53.432 53.8653C53.432 60.4955 48.0571 65.8703 41.427 65.8703C34.7968 65.8703 29.4219 60.4955 29.4219 53.8653C29.4219 47.2351 34.7968 41.8603 41.427 41.8603C48.0571 41.8603 53.432 47.2351 53.432 53.8653ZM41.427 64.8149C47.4743 64.8149 52.3766 59.9126 52.3766 53.8653C52.3766 47.818 47.4743 42.9157 41.427 42.9157C35.3797 42.9157 30.4773 47.818 30.4773 53.8653C30.4773 59.9126 35.3797 64.8149 41.427 64.8149Z" fill="#4E4E4E"/>
<path fill-rule="evenodd" clip-rule="evenodd" d="M48.4255 53.8653C48.4255 57.7306 45.292 60.8641 41.4267 60.8641C37.5614 60.8641 34.4279 57.7306 34.4279 53.8653C34.4279 50 37.5614 46.8665 41.4267 46.8665C45.292 46.8665 48.4255 50 48.4255 53.8653ZM41.4267 59.8087C44.7091 59.8087 47.3701 57.1477 47.3701 53.8653C47.3701 50.5829 44.7091 47.9219 41.4267 47.9219C38.1443 47.9219 35.4833 50.5829 35.4833 53.8653C35.4833 57.1477 38.1443 59.8087 41.4267 59.8087Z" fill="#4E4E4E"/>
<path d="M42 63C43.1819 63 44.3522 62.7672 45.4442 62.3149C46.5361 61.8626 47.5282 61.1997 48.364 60.364C49.1997 59.5282 49.8626 58.5361 50.3149 57.4442C50.7672 56.3522 51 55.1819 51 54" stroke="#4E4E4E" stroke-linecap="round"/>
<rect x="1.5" y="1.5" width="79.2857" height="79.2857" rx="39.6429" stroke="#EAAA00" stroke-width="3"/>
</svg>
