<svg height='100px' width='100px'  fill="#000000" xmlns="http://www.w3.org/2000/svg" xmlns:xlink="http://www.w3.org/1999/xlink" version="1.1" x="0px" y="0px" viewBox="0 0 1024 1024" style="enable-background:new 0 0 1024 1024;" xml:space="preserve"><path d="M949.2,503.2c-28.2-25.4-56.3-50.7-84.5-76.1c-16-14.4-31.9-28.8-47.9-43.1  c-37.2-33.5-74.5-67.1-111.7-100.6C666.5,248.7,628,214,589.5,179.3C569,160.9,548.7,142.3,528,124c-0.3-0.3-0.6-0.5-0.9-0.8  c-12.4-11.2-30-11.5-42.4,0c-16.6,15.4-33.2,30.8-49.8,46.1c-36.5,33.9-73.1,67.8-109.6,101.6c-37.1,34.4-74.2,68.8-111.3,103.2  c-17.9,16.6-35.9,33.2-53.8,49.9c-27.5,25.4-54.9,50.9-82.3,76.3c-1,1-2.1,1.9-3.1,2.9c-11.5,10.7-11.6,31.8,0,42.4  c12.4,11.3,30.1,11.4,42.4,0c14.6-13.5,29.2-27.1,43.8-40.6v364.5c0,10.8,9.3,20.5,20.1,20.5h219.3c10.8,0,19.5-9.7,19.5-20.5V633.2  c0-1.4,0.2-2.8,0.2-4.3c0-3.3,0.3-6.6,0.6-9.9c0.1-0.8,0.2-1.6,0.3-2.4c-0.7,3.4,0.4-5,0-0.4c0,0.1,0,0.3,0,0.4  c0-0.2,0.1-0.3,0.1-0.5c0.6-3.1,1.2-6.2,1.9-9.3c1.2-4.8,2.8-9.4,4.5-14c-1.8,3.7,1.6-4.4,0-0.1c0,0,0,0,0,0.1  c0-0.1,0.1-0.1,0.1-0.2c0.6-1.2,1.1-2.4,1.7-3.6c1.4-2.8,2.9-5.5,4.5-8.1c1.1-1.9,2.3-3.7,3.6-5.5c0.7-1,1.5-2,2.2-3  c-2.5,2.9,2.7-3.8,0.1-0.2c0,0-0.1,0.1-0.1,0.1c0.1-0.1,0.1-0.1,0.2-0.2c3.6-4.1,7.2-8.2,11.3-11.9c0.9-0.8,4.3-4.8,5.5-4.7  c-0.7,0.5-1.3,1-2,1.5c0.7-0.5,1.4-1,2.1-1.6c1.1-0.8,2.1-1.5,3.2-2.3c4.4-2.9,9-5.6,13.7-7.9c0.5-0.3,3-1.8,3.6-1.7  c-0.8,0.3-1.6,0.7-2.3,1c0.8-0.3,1.6-0.7,2.5-1c2.5-1,5-1.8,7.6-2.6c2.2-0.7,4.3-1.2,6.5-1.8c1.6-0.4,8-2.7,9.4-1.8  c-0.9,0.1-1.7,0.2-2.6,0.3c0.9-0.1,1.8-0.2,2.7-0.3c1.4-0.1,2.8-0.3,4.2-0.3c2.3-0.2,4.7-0.2,7-0.2s4.7,0.1,7,0.2  c1.4,0.1,2.8,0.2,4.2,0.3c0.3,0,0.6,0.1,0.9,0.1c-0.3-0.1-0.6-0.1-0.7-0.1c0.2,0,0.9,0.1,1.9,0.3c-0.4,0-0.8-0.1-1.2-0.1  c0.2,0,0.4,0.1,0.6,0.1c4.9,0.9,9.7,1.9,14.5,3.4c2.6,0.8,5.1,1.6,7.6,2.6c0.4,0.2,0.8,0.3,1.2,0.5c0.4,0.2,0.7,0.3,1,0.4  c-0.4-0.1-1.1-0.4-2-0.8c0.8-0.3,4,1.9,4.8,2.3c4.3,2.2,8.5,4.6,12.5,7.3c1.1,0.7,2.2,1.5,3.2,2.3c0.4,0.3,0.7,0.5,1.1,0.8  c0.3,0.2,0.5,0.4,0.7,0.5c-0.3-0.3-0.9-0.7-1.6-1.2c1.3-0.1,4.8,4.1,6,5.1c3.9,3.6,7.3,7.5,10.8,11.4c0.1,0.1,0.1,0.2,0.2,0.2  c0,0-0.1-0.1-0.1-0.1c-2.6-3.6,2.6,3,0.1,0.2c0.7,1,1.5,2,2.2,3c1.5,2.2,2.9,4.4,4.3,6.6c1.3,2.3,2.6,4.6,3.8,7  c0.6,1.2,1.1,2.4,1.7,3.6c0,0.1,0.1,0.1,0.1,0.2c0,0,0,0,0-0.1c-1.6-4.3,1.9,3.8,0,0.1c1.9,5,3.6,10.1,4.8,15.3  c0.6,2.7,1.1,5.3,1.6,8c0,0,0,0.1,0,0.1c-0.4-4.8,0.8,4.4,0,0c0.1,0.9,0.2,1.8,0.3,2.7c0.3,3.3,0.4,6.7,0.4,10c0,4.6,0,9.2,0,13.8  v226.8c0,10.8,9.2,20.5,20,20.5h219.3c10.8,0,19.6-9.7,19.6-20.5V506.3c13.5,12.1,27,24.3,40.4,36.4c1.1,1,2.2,2,3.4,3  c11.7,10.5,31.1,12.4,42.4,0C959.7,534.2,961.7,514.4,949.2,503.2z"></path></svg>