<svg width="31" height="27" viewBox="0 0 31 27" fill="none" xmlns="http://www.w3.org/2000/svg">
<path d="M2.75024 10.6905C2.75024 8.84977 4.24247 7.35754 6.08323 7.35754H26.7445C28.5852 7.35754 30.0774 8.84977 30.0774 10.6905V23.1999C30.0774 25.0406 28.5852 26.5328 26.7445 26.5328H6.08323C4.24247 26.5328 2.75024 25.0406 2.75024 23.1999V10.6905Z" fill="black"/>
<path d="M1.47797 8.30722C1.47797 7.08005 2.47279 6.08523 3.69996 6.08523H26.5832C27.8104 6.08523 28.8052 7.08005 28.8052 8.30722V23.0385C28.8052 24.2657 27.8104 25.2605 26.5832 25.2605H3.69996C2.47278 25.2605 1.47797 24.2657 1.47797 23.0385V8.30722Z" fill="#DCEFC8"/>
<path fill-rule="evenodd" clip-rule="evenodd" d="M3.69998 5.52975H26.5832C28.1172 5.52975 29.3607 6.77328 29.3607 8.30725V23.0386C29.3607 24.5725 28.1172 25.8161 26.5832 25.8161H3.69997C2.16601 25.8161 0.922485 24.5725 0.922485 23.0386V8.30724C0.922485 6.77328 2.16601 5.52975 3.69998 5.52975ZM3.69998 6.08525C2.4728 6.08525 1.47798 7.08007 1.47798 8.30724V23.0386C1.47798 24.2657 2.4728 25.2606 3.69997 25.2606H26.5832C27.8104 25.2606 28.8052 24.2657 28.8052 23.0386V8.30725C28.8052 7.08007 27.8104 6.08525 26.5832 6.08525H3.69998Z" fill="black"/>
<path d="M12.0735 7.67561C12.0735 7.1779 12.477 6.77442 12.9747 6.77442H17.3084C17.8061 6.77442 18.2096 7.1779 18.2096 7.67561C18.2096 8.17332 17.8061 8.5768 17.3084 8.5768H12.9747C12.477 8.5768 12.0735 8.17332 12.0735 7.67561Z" fill="black"/>
<rect x="4.5" y="11.5" width="9" height="11" rx="1" fill="white"/>
<path fill-rule="evenodd" clip-rule="evenodd" d="M5.61059 11.0429H12.0029C12.9233 11.0429 13.6694 11.789 13.6694 12.7094V21.2149C13.6694 22.1353 12.9233 22.8814 12.0029 22.8814H5.61058C4.6902 22.8814 3.94409 22.1353 3.94409 21.2149V12.7094C3.94409 11.789 4.69021 11.0429 5.61059 11.0429ZM5.61059 11.5984C4.997 11.5984 4.49959 12.0958 4.49959 12.7094V21.2149C4.49959 21.8285 4.997 22.3259 5.61058 22.3259H12.0029C12.6165 22.3259 13.1139 21.8285 13.1139 21.2149V12.7094C13.1139 12.0958 12.6165 11.5984 12.0029 11.5984H5.61059Z" fill="black"/>
<path fill-rule="evenodd" clip-rule="evenodd" d="M6.78493 18.6733C6.9363 19.0261 7.25791 19.2857 7.68423 19.4634C8.14497 19.6553 8.6936 19.7355 9.17047 19.7355C9.64734 19.7355 10.196 19.6553 10.6567 19.4634C11.083 19.2857 11.4046 19.0261 11.556 18.6733C11.4008 18.334 11.0219 18.0689 10.5381 17.8828C10.0256 17.6857 9.4725 17.6079 9.17047 17.6079C8.86844 17.6079 8.31538 17.6857 7.80287 17.8828C7.31902 18.0689 6.94015 18.334 6.78493 18.6733ZM7.60346 17.3644C8.18096 17.1423 8.80173 17.0524 9.17047 17.0524C9.53921 17.0524 10.16 17.1423 10.7375 17.3644C11.3034 17.582 11.9086 17.9585 12.117 18.5838C12.136 18.6409 12.136 18.7025 12.117 18.7595C11.9146 19.3669 11.4149 19.7492 10.8704 19.9761C10.325 20.2034 9.69975 20.291 9.17047 20.291C8.64119 20.291 8.01598 20.2034 7.47057 19.9761C6.926 19.7492 6.42637 19.3669 6.22391 18.7595C6.2049 18.7025 6.2049 18.6409 6.22391 18.5838C6.43235 17.9585 7.03758 17.582 7.60346 17.3644Z" fill="black"/>
<path fill-rule="evenodd" clip-rule="evenodd" d="M8.13126 13.5721C8.01867 13.4007 7.82011 13.3047 7.61469 13.3241C7.40173 13.3443 7.21925 13.4849 7.14553 13.6857C6.96581 14.1753 7.00946 14.6382 7.30217 14.989C7.37066 15.0711 7.44713 15.1399 7.52736 15.1975C7.49272 15.33 7.47425 15.4691 7.47425 15.6122C7.47425 16.5164 8.20728 17.2495 9.11151 17.2495C10.0049 17.2495 10.7312 16.5339 10.7485 15.6446C10.7569 15.5593 10.7688 15.3871 10.7496 15.2405C10.677 14.5961 10.3661 14.1476 9.89569 13.9017C9.469 13.6787 8.97801 13.6588 8.59039 13.6803C8.39505 13.6912 8.27155 13.6521 8.20343 13.6187C8.15763 13.5963 8.13628 13.5767 8.13126 13.5721ZM10.1983 15.3084C10.0923 14.341 9.33685 14.1952 8.6212 14.235C8.43862 14.2451 8.28354 14.2259 8.1544 14.1907C7.8786 14.1155 7.72116 13.9674 7.667 13.8771C7.54249 14.2163 7.58909 14.4539 7.71563 14.6169C7.73189 14.6379 7.74947 14.6576 7.76817 14.6761C7.90485 14.8115 8.10167 14.8842 8.28316 14.9165C8.16153 15.0611 8.0771 15.2381 8.04459 15.4326C8.03483 15.491 8.02975 15.551 8.02975 15.6122C8.02975 16.2097 8.51407 16.694 9.11151 16.694C9.70895 16.694 10.1933 16.2097 10.1933 15.6122C10.2005 15.5501 10.2117 15.4024 10.1983 15.3084Z" fill="black"/>
<path fill-rule="evenodd" clip-rule="evenodd" d="M9.41681 18.5157C9.41681 18.3623 9.54116 18.2379 9.69456 18.2379H10.4897C10.6431 18.2379 10.7675 18.3623 10.7675 18.5157C10.7675 18.6691 10.6431 18.7934 10.4897 18.7934H9.69456C9.54116 18.7934 9.41681 18.6691 9.41681 18.5157Z" fill="black"/>
<path fill-rule="evenodd" clip-rule="evenodd" d="M15.2881 19.6267C15.2881 19.4733 15.4124 19.349 15.5658 19.349H21.2375C21.3909 19.349 21.5153 19.4733 21.5153 19.6267C21.5153 19.7801 21.3909 19.9045 21.2375 19.9045H15.5658C15.4124 19.9045 15.2881 19.7801 15.2881 19.6267Z" fill="#111111"/>
<path fill-rule="evenodd" clip-rule="evenodd" d="M15.2881 17.9333C15.2881 17.7799 15.4124 17.6555 15.5658 17.6555H25.956C26.1094 17.6555 26.2337 17.7799 26.2337 17.9333C26.2337 18.0867 26.1094 18.211 25.956 18.211H15.5658C15.4124 18.211 15.2881 18.0867 15.2881 17.9333Z" fill="#111111"/>
<path fill-rule="evenodd" clip-rule="evenodd" d="M15.2881 16.2369C15.2881 16.0835 15.4124 15.9591 15.5658 15.9591H25.956C26.1094 15.9591 26.2337 16.0835 26.2337 16.2369C26.2337 16.3903 26.1094 16.5146 25.956 16.5146H15.5658C15.4124 16.5146 15.2881 16.3903 15.2881 16.2369Z" fill="#111111"/>
<path fill-rule="evenodd" clip-rule="evenodd" d="M15.288 14.5405C15.288 14.3871 15.4123 14.2628 15.5657 14.2628H25.9559C26.1093 14.2628 26.2336 14.3871 26.2336 14.5405C26.2336 14.6939 26.1093 14.8183 25.9559 14.8183H15.5657C15.4123 14.8183 15.288 14.6939 15.288 14.5405Z" fill="#111111"/>
<path d="M15.3404 11.9827C15.3404 11.6534 15.6074 11.3864 15.9368 11.3864H25.6908C26.0202 11.3864 26.2872 11.6534 26.2872 11.9827C26.2872 12.3121 26.0202 12.5791 25.6908 12.5791H15.9368C15.6074 12.5791 15.3404 12.3121 15.3404 11.9827Z" fill="#111111"/>
<path d="M13.644 1.57818C13.644 1.27139 13.8927 1.02268 14.1995 1.02268H16.0837C16.3905 1.02268 16.6392 1.27139 16.6392 1.57818V7.59606H13.644V1.57818Z" fill="#E6EEE1"/>
<path fill-rule="evenodd" clip-rule="evenodd" d="M17.1947 8.15158H13.0886V1.57821C13.0886 0.96462 13.586 0.467209 14.1996 0.467209H16.0837C16.6973 0.467209 17.1947 0.964619 17.1947 1.5782V8.15158ZM14.1996 1.02271C13.8928 1.02271 13.6441 1.27141 13.6441 1.57821V7.59608H16.6392V1.5782C16.6392 1.27141 16.3905 1.02271 16.0837 1.02271H14.1996Z" fill="black"/>
<path d="M15.9102 2.50704C15.9102 2.93156 15.5661 3.2757 15.1416 3.2757C14.7171 3.2757 14.3729 2.93156 14.3729 2.50704C14.3729 2.08252 14.7171 1.73838 15.1416 1.73838C15.5661 1.73838 15.9102 2.08252 15.9102 2.50704Z" fill="black"/>
</svg>
